# xmcd
#
# Track frame offsets:
#	150
#	15721
#	28371
#	42717
#	60170
#	73131
#	89180
#	104157
#	118308
#	133139
#	147157
#	161762
#	179874
#	195596
#
# Disc length: 2878 seconds
#
# Revision: 0
# Processed by: cddbd v1.5.2PL0 Copyright (c) Steve Scherf et al.
# Submitted via: EasyCDDAExtractor 2010.6.0.0
#
DISCID=e60b3c0e
DTITLE=Various Artist - Mr Music Country  01 2012
DYEAR=2012
DGENRE=Country
TTITLE0=Brad Paisley - Mud on the tires
TTITLE1=Joe Diffie - Third rock from the sun
TTITLE2=Rosanne Cash - Miss the Mississippi and you
TTITLE3=Randy Travis - Herd rock bottom of your heart
TTITLE4=Sweethearts of the Rodeo - Blue to the bone
TTITLE5=T.G. Sheppard - Strong heart
TTITLE6=Doug Supernaw - The perfect picture (to fit my...)
TTITLE7=Rick Trevino - She just left me lounge
TTITLE8=K.D. Lang - Trail of broken hearts
TTITLE9=Alan Jackson - Listen to your senses
TTITLE10=Brooks and Dunn - She's not the cheatin' kind
TTITLE11=John Michael Montgomery - Rope the moon
TTITLE12=Paul Overstreet - Daddy's come around
TTITLE13=Dwight Yoakam - A thousand miles from nowhere
EXTD=
EXTT0=
EXTT1=
EXTT2=
EXTT3=
EXTT4=
EXTT5=
EXTT6=
EXTT7=
EXTT8=
EXTT9=
EXTT10=
EXTT11=
EXTT12=
EXTT13=
PLAYORDER=
